<?xml version="1.0" encoding="UTF-8"?>
<svg xmlns="http://www.w3.org/2000/svg" xmlns:xlink="http://www.w3.org/1999/xlink" width="532pt" height="195pt" viewBox="0 0 532 195" version="1.2">
<defs>
<g>
<symbol overflow="visible" id="glyph0-0">
<path style="stroke:none;" d=""/>
</symbol>
<symbol overflow="visible" id="glyph0-1">
<path style="stroke:none;" d="M 2.546875 -7.265625 C 0.5 -7.078125 0.4375 -4.59375 0.4375 -3.4375 C 0.4375 -2.421875 0.53125 -1.203125 1.203125 -0.4375 C 1.578125 -0.015625 2.140625 0.234375 2.6875 0.234375 C 4.328125 0.234375 4.9375 -1.46875 4.96875 -2.984375 C 4.96875 -3.1875 4.96875 -3.375 4.96875 -3.578125 C 4.96875 -4.609375 4.875 -5.8125 4.203125 -6.578125 C 3.84375 -7 3.28125 -7.28125 2.71875 -7.28125 C 2.65625 -7.28125 2.609375 -7.265625 2.546875 -7.265625 Z M 1.3125 -2.828125 C 1.296875 -2.921875 1.296875 -3.015625 1.296875 -3.125 C 1.296875 -3.8125 1.296875 -4.5 1.359375 -5.1875 C 1.390625 -5.59375 1.421875 -6.046875 1.65625 -6.40625 C 1.890625 -6.765625 2.28125 -7.03125 2.703125 -7.03125 C 3.03125 -7.03125 3.34375 -6.875 3.578125 -6.625 C 4.0625 -6.125 4.09375 -5.265625 4.09375 -4.484375 L 4.09375 -3.84375 C 4.09375 -3.5625 4.109375 -3.25 4.109375 -2.9375 C 4.109375 -1.546875 3.921875 -0.015625 2.6875 -0.015625 L 2.65625 -0.015625 C 1.3125 -0.140625 1.421875 -1.75 1.3125 -2.828125 Z M 1.3125 -2.828125 "/>
</symbol>
<symbol overflow="visible" id="glyph0-2">
<path style="stroke:none;" d="M 1.421875 -1.09375 C 1.125 -1.046875 0.96875 -0.796875 0.96875 -0.5625 C 0.96875 -0.3125 1.140625 -0.015625 1.5 -0.015625 C 1.828125 -0.015625 2.046875 -0.28125 2.046875 -0.5625 C 2.046875 -0.8125 1.859375 -1.09375 1.515625 -1.09375 C 1.484375 -1.09375 1.453125 -1.09375 1.421875 -1.09375 Z M 1.421875 -1.09375 "/>
</symbol>
<symbol overflow="visible" id="glyph0-3">
<path style="stroke:none;" d="M 1 -6.5625 L 1 -6.234375 C 1.515625 -6.234375 1.90625 -6.328125 2.421875 -6.515625 L 2.421875 -0.8125 C 2.421875 -0.375 2.015625 -0.34375 1.625 -0.34375 L 1.0625 -0.34375 L 1.0625 -0.015625 L 2.53125 -0.015625 L 2.8125 -0.046875 L 4.546875 -0.046875 L 4.546875 -0.34375 C 4.375 -0.34375 4.171875 -0.328125 4 -0.328125 C 3.5625 -0.328125 3.203125 -0.390625 3.203125 -0.8125 L 3.203125 -7.09375 C 3.203125 -7.1875 3.15625 -7.265625 3.046875 -7.265625 C 2.90625 -7.265625 2.75 -7.0625 2.625 -6.96875 C 2.140625 -6.65625 1.5625 -6.5625 1 -6.5625 Z M 1 -6.5625 "/>
</symbol>
<symbol overflow="visible" id="glyph0-4">
<path style="stroke:none;" d="M 0.34375 -0.34375 L 0.34375 -0.015625 L 2.546875 -0.015625 L 2.546875 -0.34375 C 2.25 -0.34375 1.796875 -0.5 1.796875 -0.875 L 1.796875 -0.890625 C 1.796875 -1.0625 1.90625 -1.25 1.96875 -1.421875 C 2.109375 -1.78125 2.28125 -2.1875 2.359375 -2.546875 L 5.03125 -2.546875 C 5.234375 -2.546875 5.34375 -1.984375 5.4375 -1.703125 C 5.546875 -1.375 5.796875 -0.890625 5.796875 -0.671875 C 5.796875 -0.34375 5.265625 -0.34375 4.96875 -0.34375 L 4.96875 -0.015625 L 6.21875 -0.015625 L 6.453125 -0.046875 L 7.234375 -0.046875 L 7.765625 -0.015625 L 7.765625 -0.34375 L 7.484375 -0.34375 C 7.25 -0.34375 7.015625 -0.359375 6.859375 -0.484375 C 6.71875 -0.625 6.671875 -0.84375 6.625 -1.03125 C 6.046875 -2.625 5.46875 -4.234375 4.90625 -5.84375 L 4.28125 -7.609375 C 4.234375 -7.734375 4.203125 -7.796875 4.0625 -7.796875 C 3.84375 -7.796875 3.8125 -7.5625 3.734375 -7.359375 C 3 -5.328125 2.296875 -3.28125 1.578125 -1.21875 C 1.390625 -0.78125 1.21875 -0.34375 0.34375 -0.34375 Z M 2.46875 -2.875 L 3.75 -6.46875 L 5.03125 -2.875 Z M 2.46875 -2.875 "/>
</symbol>
<symbol overflow="visible" id="glyph0-5">
<path style="stroke:none;" d="M 1.15625 -2.109375 C 0.9375 -1.890625 0.8125 -1.5 0.8125 -1.203125 C 0.8125 -0.8125 1 -0.53125 1.28125 -0.234375 C 0.78125 -0.140625 0.3125 0.3125 0.3125 0.84375 C 0.3125 1.96875 2.078125 2.234375 2.71875 2.234375 C 3.6875 2.234375 5.109375 1.859375 5.109375 0.796875 C 5.109375 -0.4375 3.859375 -0.71875 2.71875 -0.71875 L 1.96875 -0.71875 C 1.421875 -0.71875 1.140625 -1.015625 1.140625 -1.46875 C 1.140625 -1.671875 1.25 -1.828125 1.3125 -1.96875 C 1.609375 -1.78125 1.9375 -1.65625 2.296875 -1.640625 L 2.375 -1.640625 C 3.25 -1.640625 4 -2.171875 4.140625 -3.09375 L 4.140625 -3.203125 C 4.140625 -3.5625 4.015625 -3.921875 3.78125 -4.1875 C 3.765625 -4.21875 3.734375 -4.25 3.734375 -4.28125 L 3.734375 -4.296875 C 3.875 -4.515625 4.390625 -4.703125 4.703125 -4.703125 C 4.75 -4.703125 4.78125 -4.6875 4.828125 -4.6875 C 4.75 -4.625 4.671875 -4.5625 4.65625 -4.453125 L 4.65625 -4.421875 C 4.65625 -4.25 4.796875 -4.109375 4.96875 -4.109375 C 5.171875 -4.109375 5.25 -4.265625 5.25 -4.421875 C 5.25 -4.765625 4.9375 -4.921875 4.671875 -4.921875 C 4.3125 -4.921875 3.9375 -4.765625 3.65625 -4.53125 C 3.625 -4.5 3.59375 -4.453125 3.546875 -4.453125 L 3.53125 -4.453125 C 3.46875 -4.453125 3.25 -4.640625 3.09375 -4.671875 C 2.875 -4.765625 2.640625 -4.8125 2.40625 -4.8125 C 1.578125 -4.8125 0.75 -4.21875 0.65625 -3.359375 L 0.65625 -3.25 C 0.65625 -2.828125 0.8125 -2.375 1.15625 -2.109375 Z M 0.859375 0.921875 L 0.859375 0.828125 C 0.859375 0.234375 1.390625 -0.09375 1.96875 -0.09375 L 3.015625 -0.09375 C 3.609375 -0.09375 4.4375 0.046875 4.546875 0.765625 L 4.546875 0.84375 C 4.546875 1.65625 3.375 1.984375 2.6875 1.984375 C 1.96875 1.984375 0.96875 1.65625 0.859375 0.921875 Z M 1.4375 -3.015625 L 1.4375 -3.140625 C 1.4375 -3.734375 1.578125 -4.546875 2.390625 -4.546875 C 3.09375 -4.546875 3.359375 -3.921875 3.359375 -3.21875 C 3.359375 -2.671875 3.21875 -1.890625 2.40625 -1.890625 C 1.78125 -1.890625 1.515625 -2.40625 1.4375 -3.015625 Z M 1.4375 -3.015625 "/>
</symbol>
<symbol overflow="visible" id="glyph0-6">
<path style="stroke:none;" d="M 0.3125 -4.6875 L 0.3125 -4.359375 L 0.484375 -4.359375 C 0.8125 -4.359375 1.140625 -4.328125 1.140625 -3.8125 L 1.140625 -0.796875 C 1.140625 -0.34375 0.84375 -0.34375 0.375 -0.34375 L 0.3125 -0.34375 L 0.3125 -0.015625 L 2.90625 -0.015625 L 2.90625 -0.34375 C 2.78125 -0.34375 2.65625 -0.328125 2.515625 -0.328125 C 2.171875 -0.328125 1.859375 -0.375 1.859375 -0.78125 L 1.859375 -2.265625 C 1.859375 -3.125 2.03125 -4.578125 3.125 -4.578125 C 3.171875 -4.578125 3.21875 -4.5625 3.265625 -4.5625 C 3.109375 -4.5 3.015625 -4.3125 3.015625 -4.15625 C 3.015625 -3.921875 3.203125 -3.734375 3.421875 -3.703125 C 3.734375 -3.703125 3.921875 -3.90625 3.921875 -4.171875 C 3.921875 -4.59375 3.5 -4.8125 3.140625 -4.8125 C 2.453125 -4.8125 1.9375 -4.1875 1.8125 -3.625 L 1.796875 -4.8125 Z M 0.3125 -4.6875 "/>
</symbol>
<symbol overflow="visible" id="glyph0-7">
<path style="stroke:none;" d="M 2.546875 -4.859375 C 1.15625 -4.703125 0.3125 -3.5625 0.3125 -2.328125 C 0.3125 -1.171875 1.203125 0.109375 2.703125 0.109375 C 4.0625 0.109375 5.09375 -1.0625 5.09375 -2.34375 C 5.09375 -3.625 4.125 -4.859375 2.65625 -4.859375 Z M 1.1875 -2.09375 C 1.171875 -2.1875 1.171875 -2.28125 1.171875 -2.359375 C 1.171875 -3.234375 1.375 -4.625 2.703125 -4.625 C 3.84375 -4.625 4.21875 -3.546875 4.21875 -2.5 C 4.21875 -1.609375 4.109375 -0.234375 2.765625 -0.15625 L 2.703125 -0.15625 C 1.828125 -0.15625 1.296875 -0.921875 1.21875 -1.765625 C 1.203125 -1.875 1.203125 -1.984375 1.1875 -2.09375 Z M 1.1875 -2.09375 "/>
</symbol>
<symbol overflow="visible" id="glyph0-8">
<path style="stroke:none;" d="M 0.359375 -4.6875 L 0.359375 -4.359375 L 0.5 -4.359375 C 0.78125 -4.359375 1.109375 -4.34375 1.171875 -4.03125 C 1.1875 -3.921875 1.1875 -3.796875 1.1875 -3.671875 L 1.1875 -1.484375 C 1.1875 -1.171875 1.203125 -0.84375 1.359375 -0.5625 C 1.640625 -0.015625 2.28125 0.09375 2.84375 0.09375 C 3.453125 0.09375 4 -0.28125 4.203125 -0.875 L 4.21875 0.09375 L 5.765625 -0.015625 L 5.765625 -0.34375 L 5.609375 -0.34375 C 5.265625 -0.34375 4.921875 -0.375 4.921875 -0.859375 L 4.921875 -4.8125 L 3.359375 -4.6875 L 3.359375 -4.359375 L 3.453125 -4.359375 C 3.828125 -4.359375 4.1875 -4.34375 4.1875 -3.8125 L 4.1875 -1.84375 C 4.1875 -1.046875 3.78125 -0.125 2.84375 -0.125 C 2.421875 -0.125 2.046875 -0.265625 1.953125 -0.8125 C 1.9375 -1.03125 1.9375 -1.234375 1.9375 -1.4375 L 1.9375 -4.8125 L 1.390625 -4.765625 Z M 0.359375 -4.6875 "/>
</symbol>
<symbol overflow="visible" id="glyph0-9">
<path style="stroke:none;" d="M 0.3125 -4.6875 L 0.3125 -4.359375 L 0.546875 -4.359375 C 0.859375 -4.359375 1.140625 -4.3125 1.140625 -3.875 L 1.140625 1.3125 C 1.140625 1.765625 0.84375 1.78125 0.3125 1.78125 L 0.3125 2.109375 L 2.71875 2.109375 L 2.71875 1.78125 L 2.46875 1.78125 C 2.15625 1.78125 1.890625 1.734375 1.890625 1.34375 L 1.890625 -0.578125 C 2.140625 -0.125 2.78125 0.09375 3.265625 0.09375 C 4.578125 0.09375 5.640625 -1.0625 5.640625 -2.359375 C 5.640625 -3.5625 4.734375 -4.8125 3.40625 -4.8125 C 2.796875 -4.8125 2.296875 -4.578125 1.859375 -4.09375 L 1.859375 -4.8125 Z M 4.75 -2.171875 C 4.71875 -1.34375 4.265625 -0.203125 3.265625 -0.125 L 3.15625 -0.125 C 2.640625 -0.125 1.890625 -0.625 1.890625 -1.171875 L 1.890625 -3 C 1.890625 -3.140625 1.875 -3.265625 1.875 -3.40625 C 1.875 -4 2.609375 -4.546875 3.265625 -4.546875 C 4.390625 -4.546875 4.765625 -3.140625 4.765625 -2.34375 C 4.765625 -2.296875 4.765625 -2.21875 4.75 -2.171875 Z M 4.75 -2.171875 "/>
</symbol>
<symbol overflow="visible" id="glyph0-10">
<path style="stroke:none;" d="M 1.203125 -4.703125 L 0.34375 -4.703125 L 0.34375 -4.375 L 1.203125 -4.375 L 1.203125 -0.75 C 1.203125 -0.375 0.90625 -0.34375 0.609375 -0.34375 L 0.375 -0.34375 L 0.375 -0.015625 L 2.9375 -0.015625 L 2.9375 -0.34375 C 2.828125 -0.34375 2.703125 -0.328125 2.578125 -0.328125 C 2.234375 -0.328125 1.90625 -0.375 1.90625 -0.765625 L 1.90625 -4.375 L 3.15625 -4.375 L 3.15625 -4.703125 L 1.875 -4.703125 L 1.875 -5.71875 C 1.875 -6.078125 1.875 -6.453125 2.03125 -6.796875 C 2.171875 -7.109375 2.4375 -7.4375 2.8125 -7.453125 L 2.84375 -7.453125 C 2.984375 -7.453125 3.09375 -7.421875 3.234375 -7.390625 C 3.0625 -7.28125 2.90625 -7.203125 2.90625 -6.953125 C 2.90625 -6.703125 3.078125 -6.5 3.375 -6.5 C 3.65625 -6.5 3.8125 -6.71875 3.8125 -6.953125 C 3.8125 -7.453125 3.28125 -7.6875 2.875 -7.6875 C 1.890625 -7.6875 1.203125 -6.9375 1.203125 -5.875 Z M 1.203125 -4.703125 "/>
</symbol>
<symbol overflow="visible" id="glyph0-11">
<path style="stroke:none;" d="M 4.125 -0.6875 L 4.125 1.34375 C 4.125 1.703125 3.984375 1.78125 3.28125 1.78125 L 3.28125 2.109375 L 5.703125 2.109375 L 5.703125 1.78125 L 5.46875 1.78125 C 5.140625 1.78125 4.859375 1.75 4.859375 1.328125 L 4.859375 -4.8125 L 4.640625 -4.78125 L 4.515625 -4.53125 L 4.234375 -3.8125 C 4.140625 -3.921875 4.078125 -4.0625 4 -4.171875 C 3.703125 -4.5625 3.265625 -4.8125 2.765625 -4.8125 C 1.421875 -4.8125 0.375 -3.640625 0.375 -2.34375 C 0.375 -1.09375 1.375 0.109375 2.65625 0.109375 C 3.28125 0.109375 3.734375 -0.234375 4.125 -0.6875 Z M 1.25 -2.171875 L 1.25 -2.296875 C 1.25 -3.203125 1.6875 -4.546875 2.859375 -4.546875 C 3.5625 -4.546875 4.0625 -3.8125 4.15625 -3.203125 L 4.15625 -1.46875 C 4.15625 -0.859375 3.515625 -0.3125 3.0625 -0.171875 C 2.9375 -0.140625 2.8125 -0.125 2.6875 -0.125 C 1.609375 -0.15625 1.328125 -1.609375 1.25 -2.171875 Z M 1.25 -2.171875 "/>
</symbol>
<symbol overflow="visible" id="glyph0-12">
<path style="stroke:none;" d="M 1.1875 -2.546875 L 4.34375 -2.546875 C 4.453125 -2.546875 4.5 -2.59375 4.5 -2.703125 C 4.5 -3.78125 3.921875 -4.859375 2.59375 -4.859375 C 1.28125 -4.859375 0.3125 -3.671875 0.3125 -2.421875 C 0.3125 -1.234375 1.171875 0.09375 2.640625 0.09375 C 3.46875 0.09375 4.171875 -0.34375 4.46875 -1.1875 C 4.484375 -1.234375 4.5 -1.265625 4.5 -1.3125 C 4.5 -1.375 4.4375 -1.421875 4.390625 -1.421875 C 4.203125 -1.421875 4.140625 -1.0625 4.078125 -0.9375 C 3.8125 -0.484375 3.296875 -0.15625 2.765625 -0.15625 C 2.15625 -0.15625 1.625 -0.59375 1.390625 -1.140625 C 1.203125 -1.578125 1.1875 -2.078125 1.1875 -2.546875 Z M 1.203125 -2.765625 C 1.203125 -3.609375 1.671875 -4.640625 2.578125 -4.640625 C 3.515625 -4.640625 3.796875 -3.546875 3.796875 -2.765625 Z M 1.203125 -2.765625 "/>
</symbol>
<symbol overflow="visible" id="glyph0-13">
<path style="stroke:none;" d="M 0.953125 -0.40625 C 1.140625 -0.078125 1.71875 0.09375 2.109375 0.09375 C 2.875 0.09375 3.8125 -0.15625 3.90625 -1.3125 C 3.90625 -2.03125 3.515625 -2.515625 2.90625 -2.765625 C 2.640625 -2.875 2.34375 -2.90625 2.078125 -2.96875 L 1.84375 -3.015625 C 1.421875 -3.09375 0.859375 -3.3125 0.859375 -3.84375 C 0.859375 -4.484375 1.578125 -4.671875 2.109375 -4.671875 C 2.90625 -4.671875 3.28125 -4.171875 3.375 -3.453125 C 3.375 -3.359375 3.375 -3.25 3.5 -3.25 C 3.625 -3.25 3.625 -3.359375 3.625 -3.453125 L 3.625 -4.734375 C 3.625 -4.78125 3.59375 -4.859375 3.515625 -4.859375 C 3.34375 -4.859375 3.234375 -4.5625 3.125 -4.5625 C 3.046875 -4.578125 2.984375 -4.640625 2.921875 -4.671875 C 2.6875 -4.8125 2.40625 -4.859375 2.125 -4.859375 C 1.46875 -4.859375 0.359375 -4.640625 0.359375 -3.5625 C 0.359375 -2.375 1.671875 -2.25 2.4375 -2.09375 C 2.90625 -2 3.390625 -1.671875 3.40625 -1.140625 C 3.40625 -0.34375 2.703125 -0.125 2.140625 -0.125 C 1.28125 -0.125 0.875 -0.796875 0.671875 -1.53125 C 0.640625 -1.640625 0.671875 -1.875 0.484375 -1.875 C 0.421875 -1.875 0.359375 -1.828125 0.359375 -1.75 L 0.359375 -0.3125 C 0.359375 -0.25 0.34375 -0.1875 0.34375 -0.125 C 0.34375 -0.03125 0.375 0.09375 0.484375 0.09375 C 0.640625 0.078125 0.78125 -0.265625 0.953125 -0.40625 Z M 0.953125 -0.40625 "/>
</symbol>
<symbol overflow="visible" id="glyph0-14">
<path style="stroke:none;" d="M 1.609375 -6.71875 C 1.609375 -5.984375 1.3125 -4.609375 0.203125 -4.609375 L 0.203125 -4.375 L 1.140625 -4.375 L 1.140625 -1.46875 C 1.140625 -1.140625 1.15625 -0.8125 1.3125 -0.53125 C 1.578125 -0.09375 2.078125 0.09375 2.546875 0.09375 C 3.421875 0.09375 3.609375 -0.859375 3.609375 -1.5625 L 3.609375 -1.984375 L 3.34375 -1.984375 C 3.34375 -1.828125 3.359375 -1.65625 3.359375 -1.5 C 3.359375 -0.984375 3.25 -0.15625 2.609375 -0.15625 C 1.984375 -0.15625 1.875 -0.921875 1.875 -1.421875 L 1.875 -4.375 L 3.421875 -4.375 L 3.421875 -4.703125 L 1.875 -4.703125 L 1.875 -6.71875 Z M 1.609375 -6.71875 "/>
</symbol>
<symbol overflow="visible" id="glyph0-15">
<path style="stroke:none;" d="M 0.421875 -4.6875 L 0.421875 -4.359375 L 0.59375 -4.359375 C 0.9375 -4.359375 1.203125 -4.3125 1.203125 -3.8125 L 1.203125 -0.796875 C 1.203125 -0.359375 0.921875 -0.34375 0.375 -0.34375 L 0.375 -0.015625 L 2.65625 -0.015625 L 2.65625 -0.34375 L 2.484375 -0.34375 C 2.1875 -0.34375 1.90625 -0.375 1.90625 -0.71875 L 1.90625 -4.8125 Z M 1.3125 -7.265625 C 1 -7.21875 0.84375 -6.96875 0.84375 -6.734375 C 0.84375 -6.484375 1.03125 -6.1875 1.375 -6.1875 C 1.71875 -6.1875 1.921875 -6.453125 1.921875 -6.734375 C 1.921875 -6.984375 1.75 -7.28125 1.390625 -7.28125 C 1.359375 -7.28125 1.328125 -7.265625 1.3125 -7.265625 Z M 1.3125 -7.265625 "/>
</symbol>
<symbol overflow="visible" id="glyph0-16">
<path style="stroke:none;" d="M 0.359375 -4.6875 L 0.359375 -4.359375 L 0.53125 -4.359375 C 0.859375 -4.359375 1.1875 -4.328125 1.1875 -3.8125 L 1.1875 -0.796875 C 1.1875 -0.34375 0.890625 -0.34375 0.421875 -0.34375 L 0.359375 -0.34375 L 0.359375 -0.015625 L 2.765625 -0.015625 L 2.765625 -0.34375 L 2.515625 -0.34375 C 2.1875 -0.34375 1.9375 -0.375 1.9375 -0.78125 L 1.9375 -2.8125 C 1.9375 -3.59375 2.359375 -4.578125 3.40625 -4.578125 C 4.09375 -4.578125 4.1875 -3.875 4.1875 -3.234375 L 4.1875 -0.75 C 4.1875 -0.375 3.890625 -0.34375 3.59375 -0.34375 L 3.359375 -0.34375 L 3.359375 -0.015625 L 5.765625 -0.015625 L 5.765625 -0.34375 L 5.5 -0.34375 C 5.21875 -0.34375 4.921875 -0.34375 4.921875 -0.765625 L 4.921875 -3.234375 C 4.921875 -3.5625 4.921875 -3.890625 4.75 -4.1875 C 4.5 -4.671875 3.953125 -4.8125 3.4375 -4.8125 C 2.75 -4.8125 2.078125 -4.3125 1.890625 -3.703125 L 1.875 -4.8125 Z M 0.359375 -4.6875 "/>
</symbol>
<symbol overflow="visible" id="glyph0-17">
<path style="stroke:none;" d="M 6.40625 -6.703125 C 5.875 -7.296875 5.21875 -7.6875 4.359375 -7.6875 C 2.234375 -7.6875 0.59375 -5.796875 0.59375 -3.71875 C 0.59375 -1.625 2.25 0.21875 4.40625 0.21875 L 4.53125 0.21875 C 5.984375 0.109375 7.21875 -1.0625 7.21875 -2.546875 C 7.21875 -2.65625 7.1875 -2.734375 7.09375 -2.734375 C 6.890625 -2.734375 6.953125 -2.265625 6.890625 -2.046875 C 6.625 -0.9375 5.65625 -0.125 4.5 -0.125 C 3.734375 -0.125 2.984375 -0.453125 2.46875 -1.0625 C 1.828125 -1.8125 1.640625 -2.765625 1.640625 -3.71875 C 1.640625 -4.75 1.828125 -5.78125 2.59375 -6.5625 C 3.0625 -7.046875 3.796875 -7.359375 4.484375 -7.359375 C 5.875 -7.359375 6.65625 -6.125 6.875 -4.921875 C 6.890625 -4.796875 6.875 -4.59375 7.0625 -4.59375 C 7.203125 -4.59375 7.21875 -4.671875 7.21875 -4.765625 L 7.21875 -7.53125 C 7.21875 -7.578125 7.203125 -7.6875 7.109375 -7.6875 C 7.015625 -7.6875 6.953125 -7.5625 6.90625 -7.5 C 6.734375 -7.234375 6.546875 -6.984375 6.40625 -6.703125 Z M 6.40625 -6.703125 "/>
</symbol>
<symbol overflow="visible" id="glyph0-18">
<path style="stroke:none;" d="M 0.359375 -7.453125 L 0.359375 -7.125 L 0.5625 -7.125 C 0.90625 -7.125 1.1875 -7.09375 1.1875 -6.59375 L 1.1875 -0.78125 C 1.1875 -0.375 0.921875 -0.34375 0.625 -0.34375 L 0.359375 -0.34375 L 0.359375 -0.015625 L 2.765625 -0.015625 L 2.765625 -0.34375 L 2.515625 -0.34375 C 2.1875 -0.34375 1.9375 -0.375 1.9375 -0.78125 L 1.9375 -2.8125 C 1.9375 -3.59375 2.359375 -4.578125 3.40625 -4.578125 C 4.09375 -4.578125 4.1875 -3.875 4.1875 -3.234375 L 4.1875 -0.75 C 4.1875 -0.375 3.890625 -0.34375 3.59375 -0.34375 L 3.359375 -0.34375 L 3.359375 -0.015625 L 5.765625 -0.015625 L 5.765625 -0.34375 L 5.5 -0.34375 C 5.21875 -0.34375 4.921875 -0.34375 4.921875 -0.78125 L 4.921875 -3.21875 C 4.921875 -3.5625 4.921875 -3.921875 4.734375 -4.21875 C 4.484375 -4.65625 3.984375 -4.8125 3.484375 -4.8125 C 2.8125 -4.8125 2.078125 -4.390625 1.90625 -3.75 L 1.890625 -7.578125 Z M 0.359375 -7.453125 "/>
</symbol>
<symbol overflow="visible" id="glyph0-19">
<path style="stroke:none;" d="M 3.953125 -4.140625 C 3.671875 -4.140625 3.453125 -3.953125 3.453125 -3.671875 C 3.453125 -3.421875 3.65625 -3.1875 3.921875 -3.1875 C 4.171875 -3.1875 4.390625 -3.390625 4.390625 -3.6875 L 4.390625 -3.78125 C 4.28125 -4.609375 3.296875 -4.859375 2.6875 -4.859375 C 1.359375 -4.859375 0.375 -3.625 0.375 -2.359375 C 0.375 -1.078125 1.359375 0.09375 2.71875 0.09375 C 3.421875 0.09375 4.140625 -0.3125 4.421875 -1.0625 C 4.453125 -1.140625 4.5 -1.21875 4.5 -1.296875 L 4.5 -1.34375 C 4.46875 -1.390625 4.421875 -1.421875 4.375 -1.421875 C 4.203125 -1.421875 4.140625 -0.96875 4 -0.8125 C 3.734375 -0.40625 3.296875 -0.15625 2.8125 -0.15625 C 1.65625 -0.15625 1.25 -1.421875 1.25 -2.359375 C 1.25 -3.265625 1.546875 -4.53125 2.65625 -4.609375 L 2.734375 -4.609375 C 3.140625 -4.609375 3.671875 -4.484375 3.953125 -4.140625 Z M 3.953125 -4.140625 "/>
</symbol>
<symbol overflow="visible" id="glyph0-20">
<path style="stroke:none;" d="M 0.921875 -5.71875 C 1.09375 -6.40625 1.75 -6.9375 2.4375 -6.9375 C 3.421875 -6.9375 3.921875 -6.015625 3.921875 -5.1875 L 3.921875 -5.03125 C 3.859375 -4.03125 3.203125 -3.234375 2.546875 -2.515625 C 2 -1.90625 1.46875 -1.296875 0.921875 -0.703125 L 0.6875 -0.4375 C 0.625 -0.34375 0.53125 -0.3125 0.53125 -0.15625 C 0.53125 -0.109375 0.546875 -0.046875 0.546875 -0.015625 L 4.5625 -0.015625 L 4.859375 -1.875 L 4.609375 -1.875 C 4.53125 -1.546875 4.5 -1.015625 4.328125 -0.890625 C 4.28125 -0.84375 4.140625 -0.828125 4.015625 -0.828125 L 3.578125 -0.828125 C 3.421875 -0.8125 3.265625 -0.8125 3.125 -0.8125 L 1.359375 -0.8125 C 1.9375 -1.390625 2.515625 -1.96875 3.125 -2.515625 C 3.875 -3.203125 4.8125 -3.9375 4.859375 -5.0625 L 4.859375 -5.140625 C 4.859375 -6.484375 3.734375 -7.265625 2.578125 -7.265625 C 1.53125 -7.265625 0.53125 -6.40625 0.53125 -5.296875 C 0.53125 -5 0.6875 -4.6875 1.0625 -4.6875 C 1.359375 -4.6875 1.59375 -4.921875 1.59375 -5.21875 C 1.59375 -5.46875 1.40625 -5.734375 1.09375 -5.734375 C 1.03125 -5.734375 0.984375 -5.71875 0.921875 -5.71875 Z M 0.921875 -5.71875 "/>
</symbol>
<symbol overflow="visible" id="glyph0-21">
<path style="stroke:none;" d="M 5.25 0.046875 C 5.3125 0.671875 5.4375 2.109375 6.59375 2.109375 C 7.671875 2.109375 7.890625 0.703125 7.890625 0.109375 L 7.890625 0.03125 C 7.890625 -0.03125 7.859375 -0.125 7.78125 -0.125 C 7.640625 -0.125 7.640625 0.203125 7.609375 0.34375 C 7.46875 0.78125 7.09375 1.0625 6.625 1.0625 C 6 1.0625 5.765625 0.390625 5.578125 -0.078125 C 7 -0.703125 7.8125 -2.203125 7.8125 -3.71875 C 7.8125 -5.734375 6.328125 -7.6875 4.203125 -7.6875 L 4.078125 -7.6875 C 1.953125 -7.625 0.59375 -5.609375 0.59375 -3.71875 C 0.59375 -1.828125 1.953125 0.21875 4.203125 0.21875 C 4.578125 0.21875 4.890625 0.140625 5.25 0.046875 Z M 5.4375 -0.453125 C 5.25 -0.984375 4.921875 -1.609375 4.234375 -1.609375 C 3.75 -1.609375 3.390625 -1.25 3.34375 -0.796875 L 3.34375 -0.71875 C 3.34375 -0.53125 3.40625 -0.34375 3.515625 -0.15625 C 2.046875 -0.796875 1.609375 -2.265625 1.609375 -3.671875 C 1.609375 -4.59375 1.75 -5.5 2.265625 -6.296875 C 2.6875 -6.921875 3.359375 -7.390625 4.125 -7.421875 L 4.203125 -7.421875 C 6.046875 -7.421875 6.8125 -5.375 6.8125 -3.734375 C 6.8125 -2.546875 6.515625 -1.109375 5.4375 -0.453125 Z M 5.1875 -0.28125 C 4.890625 -0.15625 4.609375 -0.03125 4.234375 -0.03125 C 3.84375 -0.03125 3.578125 -0.34375 3.578125 -0.71875 C 3.578125 -1.078125 3.890625 -1.390625 4.25 -1.390625 C 4.859375 -1.390625 5.0625 -0.796875 5.1875 -0.28125 Z M 5.1875 -0.28125 "/>
</symbol>
<symbol overflow="visible" id="glyph0-22">
<path style="stroke:none;" d="M 0.203125 -4.703125 L 0.203125 -4.375 L 0.34375 -4.375 C 0.953125 -4.375 1 -4 1.25 -3.28125 C 1.609375 -2.234375 1.984375 -1.21875 2.34375 -0.1875 C 2.390625 -0.078125 2.421875 0.078125 2.5625 0.09375 L 2.578125 0.09375 C 2.828125 0.09375 2.984375 -0.625 3.125 -1 C 3.34375 -1.5625 3.53125 -2.125 3.734375 -2.6875 C 3.796875 -2.859375 3.859375 -3.015625 3.90625 -3.203125 L 3.921875 -3.203125 C 4.09375 -2.4375 4.453125 -1.71875 4.703125 -0.984375 C 4.828125 -0.609375 5 0.09375 5.21875 0.09375 L 5.25 0.09375 C 5.40625 0.09375 5.4375 -0.0625 5.46875 -0.1875 C 5.78125 -1.09375 6.125 -2 6.453125 -2.921875 C 6.703125 -3.609375 6.859375 -4.375 7.625 -4.375 L 7.625 -4.703125 L 6.875 -4.671875 L 5.859375 -4.671875 L 5.859375 -4.375 C 6.140625 -4.359375 6.4375 -4.203125 6.46875 -3.90625 L 6.46875 -3.859375 C 6.46875 -3.71875 6.40625 -3.578125 6.34375 -3.4375 C 6.078125 -2.65625 5.8125 -1.875 5.515625 -1.109375 C 5.484375 -1.03125 5.453125 -0.9375 5.4375 -0.84375 L 5.421875 -0.84375 C 5.140625 -1.84375 4.71875 -2.84375 4.359375 -3.8125 C 4.328125 -3.890625 4.28125 -3.984375 4.28125 -4.078125 C 4.28125 -4.359375 4.6875 -4.375 4.90625 -4.375 L 4.90625 -4.703125 L 2.828125 -4.703125 L 2.828125 -4.375 L 2.984375 -4.375 C 3.40625 -4.375 3.546875 -4.25 3.671875 -3.84375 C 3.703125 -3.78125 3.75 -3.671875 3.75 -3.59375 L 3.75 -3.5625 C 3.71875 -3.359375 3.59375 -3.109375 3.515625 -2.890625 C 3.375 -2.46875 3.234375 -2.078125 3.078125 -1.65625 C 3 -1.421875 2.890625 -1.203125 2.828125 -0.953125 C 2.765625 -1.21875 2.65625 -1.46875 2.5625 -1.71875 C 2.3125 -2.4375 2.046875 -3.140625 1.796875 -3.84375 C 1.78125 -3.921875 1.734375 -4 1.734375 -4.078125 C 1.734375 -4.359375 2.109375 -4.375 2.296875 -4.375 L 2.359375 -4.375 L 2.359375 -4.703125 Z M 0.203125 -4.703125 "/>
</symbol>
<symbol overflow="visible" id="glyph0-23">
<path style="stroke:none;" d="M 1.25 -0.578125 C 1.640625 -0.015625 2.625 0.234375 3.265625 0.234375 C 4.421875 0.234375 5.40625 -0.734375 5.40625 -2.015625 C 5.40625 -2.953125 4.890625 -3.8125 3.90625 -4.171875 C 3.765625 -4.203125 3.625 -4.234375 3.484375 -4.28125 L 2.703125 -4.453125 C 2.515625 -4.515625 2.296875 -4.546875 2.109375 -4.640625 C 1.609375 -4.859375 1.296875 -5.359375 1.25 -5.90625 L 1.25 -5.9375 C 1.25 -6.734375 1.9375 -7.390625 2.75 -7.390625 C 3.90625 -7.390625 4.609375 -6.53125 4.78125 -5.4375 C 4.828125 -5.296875 4.78125 -4.984375 4.96875 -4.984375 C 5.0625 -4.984375 5.109375 -5.046875 5.109375 -5.140625 L 5.109375 -7.515625 C 5.109375 -7.59375 5.09375 -7.6875 5 -7.6875 C 4.875 -7.6875 4.578125 -7.171875 4.46875 -6.90625 C 3.921875 -7.390625 3.5 -7.6875 2.75 -7.6875 C 1.71875 -7.6875 0.59375 -6.953125 0.59375 -5.625 C 0.59375 -4.75 1.140625 -3.96875 1.953125 -3.65625 C 2.984375 -3.25 4.546875 -3.515625 4.75 -1.796875 L 4.75 -1.703125 C 4.75 -0.84375 4.140625 -0.109375 3.234375 -0.109375 C 2.15625 -0.109375 1.0625 -0.734375 0.890625 -1.96875 C 0.875 -2.078125 0.875 -2.15625 0.859375 -2.25 L 0.859375 -2.390625 C 0.84375 -2.453125 0.796875 -2.484375 0.734375 -2.484375 C 0.625 -2.484375 0.59375 -2.421875 0.59375 -2.328125 L 0.59375 -0.21875 C 0.59375 -0.15625 0.59375 -0.09375 0.59375 -0.015625 C 0.59375 0.078125 0.59375 0.21875 0.734375 0.21875 C 0.890625 0.1875 1.0625 -0.328125 1.25 -0.578125 Z M 1.25 -0.578125 "/>
</symbol>
<symbol overflow="visible" id="glyph0-24">
<path style="stroke:none;" d="M 0.359375 -4.6875 L 0.359375 -4.359375 L 0.53125 -4.359375 C 0.859375 -4.359375 1.1875 -4.328125 1.1875 -3.8125 L 1.1875 -0.796875 C 1.1875 -0.34375 0.890625 -0.34375 0.421875 -0.34375 L 0.359375 -0.34375 L 0.359375 -0.015625 L 2.765625 -0.015625 L 2.765625 -0.34375 L 2.515625 -0.34375 C 2.1875 -0.34375 1.9375 -0.375 1.9375 -0.78125 L 1.9375 -2.828125 C 1.9375 -3.59375 2.359375 -4.578125 3.40625 -4.578125 C 4.0625 -4.578125 4.203125 -3.921875 4.203125 -3.34375 L 4.203125 -0.75 C 4.203125 -0.375 3.90625 -0.34375 3.609375 -0.34375 L 3.375 -0.34375 L 3.375 -0.015625 L 5.765625 -0.015625 L 5.765625 -0.34375 L 5.515625 -0.34375 C 5.203125 -0.34375 4.9375 -0.375 4.9375 -0.78125 L 4.9375 -2.828125 C 4.9375 -3.59375 5.359375 -4.578125 6.421875 -4.578125 C 7.078125 -4.578125 7.203125 -3.921875 7.203125 -3.34375 L 7.203125 -0.75 C 7.203125 -0.375 6.921875 -0.34375 6.625 -0.34375 L 6.375 -0.34375 L 6.375 -0.015625 L 8.78125 -0.015625 L 8.78125 -0.34375 L 8.53125 -0.34375 C 8.234375 -0.34375 7.953125 -0.34375 7.953125 -0.78125 L 7.953125 -3.203125 C 7.953125 -3.5625 7.9375 -3.921875 7.75 -4.21875 C 7.5 -4.6875 6.9375 -4.8125 6.4375 -4.8125 L 6.3125 -4.8125 C 5.734375 -4.75 5.078125 -4.3125 4.921875 -3.75 L 4.90625 -3.75 C 4.78125 -4.53125 4.125 -4.8125 3.46875 -4.8125 C 2.78125 -4.8125 2.109375 -4.375 1.890625 -3.703125 L 1.875 -4.8125 Z M 0.359375 -4.6875 "/>
</symbol>
<symbol overflow="visible" id="glyph0-25">
<path style="stroke:none;" d="M 1.15625 -6.296875 C 1.484375 -6.734375 2.03125 -6.984375 2.578125 -6.984375 C 3.203125 -6.984375 3.671875 -6.625 3.703125 -5.859375 L 3.703125 -5.78125 C 3.703125 -5.09375 3.453125 -4.25 2.765625 -4.015625 C 2.46875 -3.90625 1.796875 -4.03125 1.796875 -3.8125 C 1.796875 -3.703125 1.890625 -3.6875 1.984375 -3.6875 L 2.109375 -3.6875 C 2.234375 -3.6875 2.359375 -3.703125 2.515625 -3.703125 C 3.5625 -3.703125 3.921875 -2.78125 3.921875 -1.984375 L 3.921875 -1.890625 C 3.921875 -1.09375 3.625 -0.078125 2.609375 -0.078125 C 1.875 -0.078125 1.234375 -0.421875 0.875 -1.03125 L 0.96875 -1.03125 C 1.25 -1.03125 1.546875 -1.1875 1.546875 -1.546875 C 1.546875 -1.8125 1.359375 -2.078125 1.078125 -2.109375 L 1.015625 -2.109375 C 0.59375 -2.109375 0.453125 -1.828125 0.453125 -1.53125 C 0.453125 -0.34375 1.671875 0.21875 2.65625 0.21875 C 3.875 0.21875 4.96875 -0.671875 4.96875 -1.890625 C 4.96875 -2.875 4.015625 -3.8125 3.125 -3.84375 C 3.234375 -3.890625 3.375 -3.9375 3.484375 -3.984375 C 4.140625 -4.3125 4.65625 -4.96875 4.65625 -5.75 C 4.65625 -6.734375 3.578125 -7.265625 2.6875 -7.265625 C 1.828125 -7.265625 0.75 -6.8125 0.75 -5.828125 C 0.75 -5.515625 0.953125 -5.28125 1.25 -5.28125 C 1.515625 -5.28125 1.78125 -5.46875 1.78125 -5.78125 C 1.78125 -6.140625 1.5 -6.296875 1.15625 -6.296875 Z M 1.15625 -6.296875 "/>
</symbol>
<symbol overflow="visible" id="glyph0-26">
<path style="stroke:none;" d="M 1.1875 -4.0625 C 1.46875 -4.40625 1.875 -4.640625 2.328125 -4.640625 C 3.125 -4.640625 3.53125 -3.953125 3.53125 -3.203125 L 3.53125 -2.84375 C 2.296875 -2.84375 0.46875 -2.4375 0.46875 -1.046875 C 0.46875 -0.234375 1.421875 0.09375 2.1875 0.09375 L 2.328125 0.09375 C 2.875 0.046875 3.46875 -0.34375 3.609375 -0.84375 L 3.625 -0.84375 C 3.65625 -0.390625 3.953125 0.046875 4.453125 0.046875 C 4.921875 0.046875 5.296875 -0.328125 5.34375 -0.796875 L 5.34375 -1.59375 L 5.078125 -1.59375 L 5.078125 -1.046875 C 5.078125 -0.75 5.03125 -0.296875 4.671875 -0.296875 C 4.34375 -0.296875 4.265625 -0.734375 4.265625 -1 C 4.265625 -1.125 4.28125 -1.25 4.28125 -1.375 L 4.28125 -2.875 C 4.28125 -3 4.28125 -3.125 4.28125 -3.265625 C 4.28125 -4.28125 3.328125 -4.859375 2.421875 -4.859375 C 1.734375 -4.859375 0.796875 -4.5 0.796875 -3.625 C 0.796875 -3.34375 0.984375 -3.125 1.265625 -3.125 C 1.53125 -3.125 1.734375 -3.328125 1.734375 -3.59375 C 1.734375 -3.84375 1.53125 -4.0625 1.265625 -4.0625 C 1.25 -4.0625 1.203125 -4.0625 1.1875 -4.0625 Z M 3.53125 -2.625 L 3.53125 -1.53125 C 3.53125 -0.78125 3.015625 -0.171875 2.296875 -0.125 L 2.25 -0.125 C 1.75 -0.125 1.28125 -0.53125 1.28125 -1.0625 L 1.28125 -1.109375 C 1.359375 -2.171875 2.515625 -2.59375 3.53125 -2.625 Z M 3.53125 -2.625 "/>
</symbol>
<symbol overflow="visible" id="glyph0-27">
<path style="stroke:none;" d="M 0.375 -7.453125 L 0.375 -7.125 L 0.5625 -7.125 C 0.921875 -7.125 1.203125 -7.09375 1.203125 -6.578125 L 1.203125 -0.78125 C 1.203125 -0.375 0.90625 -0.34375 0.59375 -0.34375 L 0.375 -0.34375 L 0.375 -0.015625 L 2.734375 -0.015625 L 2.734375 -0.34375 L 2.484375 -0.34375 C 2.1875 -0.34375 1.90625 -0.375 1.90625 -0.765625 L 1.90625 -7.578125 Z M 0.375 -7.453125 "/>
</symbol>
<symbol overflow="visible" id="glyph0-28">
<path style="stroke:none;" d="M 0.203125 -4.671875 L 0.203125 -4.375 L 0.375 -4.375 C 0.9375 -4.375 0.96875 -4.203125 1.34375 -3.34375 C 1.765625 -2.328125 2.15625 -1.3125 2.59375 -0.3125 C 2.625 -0.21875 2.703125 -0.09375 2.703125 0 C 2.703125 0.171875 2.515625 0.453125 2.453125 0.625 C 2.21875 1.1875 1.890625 1.984375 1.1875 1.984375 C 1 1.984375 0.828125 1.90625 0.671875 1.78125 C 0.890625 1.75 1.0625 1.59375 1.0625 1.359375 C 1.0625 1.09375 0.875 0.9375 0.625 0.9375 C 0.359375 0.9375 0.203125 1.140625 0.203125 1.359375 C 0.203125 1.921875 0.734375 2.21875 1.203125 2.21875 C 2 2.21875 2.40625 1.421875 2.6875 0.734375 L 2.953125 0.09375 C 3.4375 -1.109375 3.9375 -2.296875 4.4375 -3.484375 C 4.640625 -3.96875 4.890625 -4.375 5.5 -4.375 L 5.5 -4.703125 L 4.734375 -4.671875 L 3.78125 -4.671875 L 3.78125 -4.375 C 4.046875 -4.359375 4.28125 -4.203125 4.28125 -3.921875 C 4.28125 -3.78125 4.21875 -3.640625 4.171875 -3.515625 C 3.921875 -2.921875 3.671875 -2.328125 3.421875 -1.734375 L 3.234375 -1.25 C 3.1875 -1.140625 3.140625 -1.046875 3.109375 -0.953125 L 3.09375 -0.953125 C 3.015625 -1.234375 2.875 -1.5 2.765625 -1.765625 C 2.46875 -2.46875 2.203125 -3.15625 1.890625 -3.84375 C 1.859375 -3.921875 1.828125 -4.015625 1.828125 -4.09375 L 1.828125 -4.140625 C 1.890625 -4.375 2.21875 -4.375 2.421875 -4.375 L 2.421875 -4.703125 L 1.421875 -4.703125 L 1.21875 -4.671875 Z M 0.203125 -4.671875 "/>
</symbol>
<symbol overflow="visible" id="glyph0-29">
<path style="stroke:none;" d="M 3.328125 -7.453125 L 3.328125 -7.125 L 3.453125 -7.125 C 3.875 -7.125 4.15625 -7.109375 4.15625 -6.453125 L 4.15625 -4.140625 C 3.796875 -4.546875 3.34375 -4.8125 2.765625 -4.8125 C 1.46875 -4.8125 0.375 -3.703125 0.375 -2.34375 C 0.375 -1.140625 1.296875 0.09375 2.65625 0.09375 C 3.25 0.09375 3.703125 -0.15625 4.125 -0.625 L 4.125 0.09375 L 5.6875 -0.015625 L 5.6875 -0.34375 L 5.546875 -0.34375 C 5.1875 -0.34375 4.859375 -0.375 4.859375 -0.890625 L 4.859375 -7.578125 Z M 1.25 -2.09375 L 1.25 -2.25 C 1.25 -3.0625 1.359375 -3.875 2.109375 -4.390625 C 2.328125 -4.515625 2.578125 -4.5625 2.8125 -4.5625 C 3.375 -4.5625 4.140625 -4.140625 4.140625 -3.453125 C 4.140625 -3.3125 4.125 -3.171875 4.125 -3.03125 L 4.125 -1.21875 C 4.125 -1.0625 4.0625 -0.984375 3.984375 -0.859375 C 3.703125 -0.4375 3.21875 -0.125 2.71875 -0.125 C 1.890625 -0.125 1.390625 -0.90625 1.28125 -1.640625 C 1.265625 -1.78125 1.265625 -1.9375 1.25 -2.09375 Z M 1.25 -2.09375 "/>
</symbol>
<symbol overflow="visible" id="glyph0-30">
<path style="stroke:none;" d="M 0.203125 -4.703125 L 0.203125 -4.375 L 0.421875 -4.375 C 1 -4.375 1.03125 -4.03125 1.3125 -3.34375 C 1.75 -2.296875 2.1875 -1.25 2.59375 -0.1875 C 2.65625 -0.046875 2.6875 0.09375 2.859375 0.09375 C 3.109375 0.09375 3.3125 -0.6875 3.484375 -1.09375 C 3.78125 -1.859375 4.109375 -2.625 4.421875 -3.390625 C 4.65625 -4 4.921875 -4.375 5.5 -4.375 L 5.5 -4.703125 L 4.75 -4.671875 L 3.78125 -4.671875 L 3.78125 -4.375 C 4.03125 -4.359375 4.28125 -4.203125 4.28125 -3.921875 C 4.28125 -3.703125 4.171875 -3.515625 4.09375 -3.3125 C 3.84375 -2.6875 3.578125 -2.0625 3.328125 -1.421875 C 3.25 -1.25 3.1875 -1.046875 3.09375 -0.859375 C 2.71875 -1.859375 2.3125 -2.84375 1.890625 -3.828125 C 1.859375 -3.90625 1.828125 -4 1.828125 -4.09375 L 1.828125 -4.140625 C 1.890625 -4.375 2.203125 -4.375 2.421875 -4.375 L 2.421875 -4.703125 Z M 0.203125 -4.703125 "/>
</symbol>
</g>
</defs>
<g id="surface1">
<path style="fill:none;stroke-width:1;stroke-linecap:butt;stroke-linejoin:miter;stroke:rgb(0%,0%,0%);stroke-opacity:1;stroke-miterlimit:10;" d="M 9.421062 4.9595 C 9.421062 7.424344 7.424969 9.420438 4.960125 9.420438 C 2.495281 9.420438 0.499187 7.424344 0.499187 4.9595 C 0.499187 2.498563 2.495281 0.498563 4.960125 0.498563 C 7.424969 0.498563 9.421062 2.498563 9.421062 4.9595 Z M 9.421062 4.9595 " transform="matrix(1,0,0,-1,5.993,-6.978)"/>
<path style="fill:none;stroke-width:1;stroke-linecap:butt;stroke-linejoin:miter;stroke:rgb(0%,0%,0%);stroke-opacity:1;stroke-miterlimit:10;" d="M 9.422906 4.9595 C 9.422906 7.424344 7.422906 9.420438 4.961969 9.420438 C 2.497125 9.420438 0.501031 7.424344 0.501031 4.9595 C 0.501031 2.498563 2.497125 0.498563 4.961969 0.498563 C 7.422906 0.498563 9.422906 2.498563 9.422906 4.9595 Z M 9.422906 4.9595 " transform="matrix(1,0,0,-1,360.956,-6.978)"/>
<path style="fill:none;stroke-width:1;stroke-linecap:butt;stroke-linejoin:miter;stroke:rgb(0%,0%,0%);stroke-opacity:1;stroke-miterlimit:10;" d="M -1.991156 -1.993625 L 0.391656 0.818875 L 4.958063 4.9595 L 8.215875 8.264188 L 11.911188 11.912625 " transform="matrix(1,0,0,-1,360.956,-6.978)"/>
<path style="fill:none;stroke-width:1;stroke-linecap:butt;stroke-linejoin:miter;stroke:rgb(0%,0%,0%);stroke-opacity:1;stroke-miterlimit:10;" d="M -1.991156 11.912625 L 1.454156 8.705594 L 4.958063 4.963406 L 8.290094 2.580594 L 11.911188 -1.989719 " transform="matrix(1,0,0,-1,360.956,-6.978)"/>
<path style="fill:none;stroke-width:1;stroke-linecap:butt;stroke-linejoin:miter;stroke:rgb(0%,0%,0%);stroke-opacity:1;stroke-miterlimit:10;" d="M 9.422906 4.9595 C 9.422906 7.424344 7.422906 9.420438 4.961969 9.420438 C 2.497125 9.420438 0.501031 7.424344 0.501031 4.9595 C 0.501031 2.498563 2.497125 0.498563 4.961969 0.498563 C 7.422906 0.498563 9.422906 2.498563 9.422906 4.9595 Z M 9.422906 4.9595 " transform="matrix(1,0,0,-1,444.206,-6.978)"/>
<path style="fill:none;stroke-width:1;stroke-linecap:butt;stroke-linejoin:miter;stroke:rgb(0%,0%,0%);stroke-opacity:1;stroke-miterlimit:10;" d="M -1.991156 -1.993625 L 0.661188 0.80325 L 4.958063 4.9595 L 7.790094 7.654813 L 11.911188 11.912625 " transform="matrix(1,0,0,-1,444.206,-6.978)"/>
<path style="fill:none;stroke-width:1;stroke-linecap:butt;stroke-linejoin:miter;stroke:rgb(0%,0%,0%);stroke-opacity:1;stroke-miterlimit:10;" d="M -1.991156 11.912625 L 0.586969 10.045438 L 4.958063 4.963406 L 9.141656 2.119656 L 11.911188 -1.989719 " transform="matrix(1,0,0,-1,444.206,-6.978)"/>
<g style="fill:rgb(0%,0%,0%);fill-opacity:1;">
  <use xlink:href="#glyph0-1" x="0.016" y="15.755"/>
  <use xlink:href="#glyph0-2" x="5.440005" y="15.755"/>
  <use xlink:href="#glyph0-3" x="8.45528" y="15.755"/>
</g>
<g style="fill:rgb(0%,0%,0%);fill-opacity:1;">
  <use xlink:href="#glyph0-4" x="19.301107" y="15.755"/>
</g>
<g style="fill:rgb(0%,0%,0%);fill-opacity:1;">
  <use xlink:href="#glyph0-5" x="31.05348" y="15.755"/>
  <use xlink:href="#glyph0-6" x="36.477485" y="15.755"/>
  <use xlink:href="#glyph0-7" x="40.697125" y="15.755"/>
</g>
<g style="fill:rgb(0%,0%,0%);fill-opacity:1;">
  <use xlink:href="#glyph0-8" x="46.11022" y="15.755"/>
  <use xlink:href="#glyph0-9" x="52.136407" y="15.755"/>
</g>
<g style="fill:rgb(0%,0%,0%);fill-opacity:1;">
  <use xlink:href="#glyph0-7" x="61.784415" y="15.755"/>
  <use xlink:href="#glyph0-10" x="67.20842" y="15.755"/>
</g>
<g style="fill:rgb(0%,0%,0%);fill-opacity:1;">
  <use xlink:href="#glyph0-11" x="74.135698" y="15.755"/>
  <use xlink:href="#glyph0-8" x="79.860794" y="15.755"/>
  <use xlink:href="#glyph0-12" x="85.886981" y="15.755"/>
  <use xlink:href="#glyph0-13" x="90.708803" y="15.755"/>
  <use xlink:href="#glyph0-14" x="94.988443" y="15.755"/>
  <use xlink:href="#glyph0-15" x="99.208083" y="15.755"/>
  <use xlink:href="#glyph0-7" x="102.223358" y="15.755"/>
  <use xlink:href="#glyph0-16" x="107.647362" y="15.755"/>
  <use xlink:href="#glyph0-13" x="113.673549" y="15.755"/>
</g>
<g style="fill:rgb(0%,0%,0%);fill-opacity:1;">
  <use xlink:href="#glyph0-17" x="427.367" y="29.304"/>
  <use xlink:href="#glyph0-18" x="435.199734" y="29.304"/>
  <use xlink:href="#glyph0-7" x="441.225921" y="29.304"/>
  <use xlink:href="#glyph0-15" x="446.649925" y="29.304"/>
  <use xlink:href="#glyph0-19" x="449.6652" y="29.304"/>
  <use xlink:href="#glyph0-12" x="454.487023" y="29.304"/>
</g>
<g style="fill:rgb(0%,0%,0%);fill-opacity:1;">
  <use xlink:href="#glyph0-3" x="462.919757" y="29.304"/>
</g>
<g style="fill:rgb(0%,0%,0%);fill-opacity:1;">
  <use xlink:href="#glyph0-17" x="480.300135" y="29.304"/>
  <use xlink:href="#glyph0-18" x="488.132869" y="29.304"/>
  <use xlink:href="#glyph0-7" x="494.159056" y="29.304"/>
  <use xlink:href="#glyph0-15" x="499.58306" y="29.304"/>
  <use xlink:href="#glyph0-19" x="502.598335" y="29.304"/>
  <use xlink:href="#glyph0-12" x="507.420158" y="29.304"/>
</g>
<g style="fill:rgb(0%,0%,0%);fill-opacity:1;">
  <use xlink:href="#glyph0-20" x="515.863801" y="29.304"/>
</g>
<g style="fill:rgb(0%,0%,0%);fill-opacity:1;">
  <use xlink:href="#glyph0-21" x="353.28" y="42.853"/>
  <use xlink:href="#glyph0-8" x="361.714916" y="42.853"/>
  <use xlink:href="#glyph0-12" x="367.741103" y="42.853"/>
  <use xlink:href="#glyph0-13" x="372.562925" y="42.853"/>
  <use xlink:href="#glyph0-14" x="376.842565" y="42.853"/>
  <use xlink:href="#glyph0-15" x="381.062205" y="42.853"/>
  <use xlink:href="#glyph0-7" x="384.07748" y="42.853"/>
  <use xlink:href="#glyph0-16" x="389.501485" y="42.853"/>
</g>
<g style="fill:rgb(0%,0%,0%);fill-opacity:1;">
  <use xlink:href="#glyph0-7" x="399.138584" y="42.853"/>
  <use xlink:href="#glyph0-16" x="404.562588" y="42.853"/>
  <use xlink:href="#glyph0-12" x="410.588775" y="42.853"/>
</g>
<path style="fill-rule:nonzero;fill:rgb(100%,100%,100%);fill-opacity:1;stroke-width:1;stroke-linecap:butt;stroke-linejoin:miter;stroke:rgb(0%,0%,0%);stroke-opacity:1;stroke-miterlimit:10;" d="M 0.501438 0.498406 L 0.501438 9.420281 L 9.423313 9.420281 L 9.423313 0.498406 Z M 0.501438 0.498406 " transform="matrix(1,0,0,-1,442.897,44.057)"/>
<path style="fill-rule:nonzero;fill:rgb(100%,100%,100%);fill-opacity:1;stroke-width:1;stroke-linecap:butt;stroke-linejoin:miter;stroke:rgb(0%,0%,0%);stroke-opacity:1;stroke-miterlimit:10;" d="M 0.500031 0.498406 L 0.500031 9.420281 L 9.421906 9.420281 L 9.421906 0.498406 Z M 0.500031 0.498406 " transform="matrix(1,0,0,-1,495.832,44.057)"/>
<g style="fill:rgb(0%,0%,0%);fill-opacity:1;">
  <use xlink:href="#glyph0-21" x="352.678" y="56.403"/>
  <use xlink:href="#glyph0-8" x="361.112916" y="56.403"/>
  <use xlink:href="#glyph0-12" x="367.139103" y="56.403"/>
  <use xlink:href="#glyph0-13" x="371.960925" y="56.403"/>
  <use xlink:href="#glyph0-14" x="376.240565" y="56.403"/>
  <use xlink:href="#glyph0-15" x="380.460205" y="56.403"/>
  <use xlink:href="#glyph0-7" x="383.47548" y="56.403"/>
  <use xlink:href="#glyph0-16" x="388.899485" y="56.403"/>
</g>
<g style="fill:rgb(0%,0%,0%);fill-opacity:1;">
  <use xlink:href="#glyph0-14" x="398.536584" y="56.403"/>
</g>
<g style="fill:rgb(0%,0%,0%);fill-opacity:1;">
  <use xlink:href="#glyph0-22" x="402.461678" y="56.403"/>
</g>
<g style="fill:rgb(0%,0%,0%);fill-opacity:1;">
  <use xlink:href="#glyph0-7" x="409.988957" y="56.403"/>
</g>
<path style="fill-rule:nonzero;fill:rgb(100%,100%,100%);fill-opacity:1;stroke-width:1;stroke-linecap:butt;stroke-linejoin:miter;stroke:rgb(0%,0%,0%);stroke-opacity:1;stroke-miterlimit:10;" d="M 0.501437 0.501531 L 0.501437 9.4195 L 9.423312 9.4195 L 9.423312 0.501531 Z M 0.501437 0.501531 " transform="matrix(1,0,0,-1,442.897,57.607)"/>
<path style="fill-rule:nonzero;fill:rgb(100%,100%,100%);fill-opacity:1;stroke-width:1;stroke-linecap:butt;stroke-linejoin:miter;stroke:rgb(0%,0%,0%);stroke-opacity:1;stroke-miterlimit:10;" d="M 0.500031 0.501531 L 0.500031 9.4195 L 9.421906 9.4195 L 9.421906 0.501531 Z M 0.500031 0.501531 " transform="matrix(1,0,0,-1,495.832,57.607)"/>
<g style="fill:rgb(0%,0%,0%);fill-opacity:1;">
  <use xlink:href="#glyph0-1" x="0.016" y="76.996"/>
  <use xlink:href="#glyph0-2" x="5.440005" y="76.996"/>
  <use xlink:href="#glyph0-20" x="8.45528" y="76.996"/>
</g>
<g style="fill:rgb(0%,0%,0%);fill-opacity:1;">
  <use xlink:href="#glyph0-4" x="19.301107" y="76.996"/>
  <use xlink:href="#glyph0-16" x="27.431659" y="76.996"/>
  <use xlink:href="#glyph0-7" x="33.457846" y="76.996"/>
  <use xlink:href="#glyph0-14" x="38.881851" y="76.996"/>
  <use xlink:href="#glyph0-18" x="43.10149" y="76.996"/>
  <use xlink:href="#glyph0-12" x="49.127677" y="76.996"/>
  <use xlink:href="#glyph0-6" x="53.949499" y="76.996"/>
</g>
<g style="fill:rgb(0%,0%,0%);fill-opacity:1;">
  <use xlink:href="#glyph0-11" x="61.780051" y="76.996"/>
  <use xlink:href="#glyph0-8" x="67.505147" y="76.996"/>
  <use xlink:href="#glyph0-12" x="73.531334" y="76.996"/>
  <use xlink:href="#glyph0-13" x="78.353156" y="76.996"/>
  <use xlink:href="#glyph0-14" x="82.632796" y="76.996"/>
  <use xlink:href="#glyph0-15" x="86.852436" y="76.996"/>
  <use xlink:href="#glyph0-7" x="89.867711" y="76.996"/>
  <use xlink:href="#glyph0-16" x="95.291716" y="76.996"/>
</g>
<g style="fill:rgb(0%,0%,0%);fill-opacity:1;">
  <use xlink:href="#glyph0-23" x="376.142" y="90.545"/>
  <use xlink:href="#glyph0-7" x="382.168187" y="90.545"/>
  <use xlink:href="#glyph0-24" x="387.592191" y="90.545"/>
  <use xlink:href="#glyph0-12" x="396.62929" y="90.545"/>
</g>
<g style="fill:rgb(0%,0%,0%);fill-opacity:1;">
  <use xlink:href="#glyph0-19" x="405.062024" y="90.545"/>
</g>
<g style="fill:rgb(0%,0%,0%);fill-opacity:1;">
  <use xlink:href="#glyph0-18" x="409.589301" y="90.545"/>
  <use xlink:href="#glyph0-7" x="415.615487" y="90.545"/>
  <use xlink:href="#glyph0-15" x="421.039492" y="90.545"/>
  <use xlink:href="#glyph0-19" x="424.054767" y="90.545"/>
  <use xlink:href="#glyph0-12" x="428.876589" y="90.545"/>
</g>
<g style="fill:rgb(0%,0%,0%);fill-opacity:1;">
  <use xlink:href="#glyph0-3" x="437.309324" y="90.545"/>
</g>
<g style="fill:rgb(0%,0%,0%);fill-opacity:1;">
  <use xlink:href="#glyph0-23" x="454.689702" y="90.545"/>
  <use xlink:href="#glyph0-7" x="460.715889" y="90.545"/>
  <use xlink:href="#glyph0-24" x="466.139893" y="90.545"/>
  <use xlink:href="#glyph0-12" x="475.176992" y="90.545"/>
</g>
<g style="fill:rgb(0%,0%,0%);fill-opacity:1;">
  <use xlink:href="#glyph0-19" x="483.609726" y="90.545"/>
</g>
<g style="fill:rgb(0%,0%,0%);fill-opacity:1;">
  <use xlink:href="#glyph0-18" x="488.137002" y="90.545"/>
  <use xlink:href="#glyph0-7" x="494.163189" y="90.545"/>
  <use xlink:href="#glyph0-15" x="499.587194" y="90.545"/>
  <use xlink:href="#glyph0-19" x="502.602469" y="90.545"/>
  <use xlink:href="#glyph0-12" x="507.424291" y="90.545"/>
</g>
<g style="fill:rgb(0%,0%,0%);fill-opacity:1;">
  <use xlink:href="#glyph0-20" x="515.857026" y="90.545"/>
</g>
<g style="fill:rgb(0%,0%,0%);fill-opacity:1;">
  <use xlink:href="#glyph0-21" x="302.055" y="104.094"/>
  <use xlink:href="#glyph0-8" x="310.489916" y="104.094"/>
  <use xlink:href="#glyph0-12" x="316.516103" y="104.094"/>
  <use xlink:href="#glyph0-13" x="321.337925" y="104.094"/>
  <use xlink:href="#glyph0-14" x="325.617565" y="104.094"/>
  <use xlink:href="#glyph0-15" x="329.837205" y="104.094"/>
  <use xlink:href="#glyph0-7" x="332.85248" y="104.094"/>
  <use xlink:href="#glyph0-16" x="338.276485" y="104.094"/>
</g>
<g style="fill:rgb(0%,0%,0%);fill-opacity:1;">
  <use xlink:href="#glyph0-7" x="347.913584" y="104.094"/>
  <use xlink:href="#glyph0-16" x="353.337588" y="104.094"/>
  <use xlink:href="#glyph0-12" x="359.363775" y="104.094"/>
</g>
<path style="fill-rule:nonzero;fill:rgb(100%,100%,100%);fill-opacity:1;stroke-width:1;stroke-linecap:butt;stroke-linejoin:miter;stroke:rgb(0%,0%,0%);stroke-opacity:1;stroke-miterlimit:10;" d="M 0.498562 0.501125 L 0.498562 9.423 L 9.420437 9.423 L 9.420437 0.501125 Z M 0.498562 0.501125 " transform="matrix(1,0,0,-1,404.478,105.298)"/>
<path style="fill-rule:nonzero;fill:rgb(100%,100%,100%);fill-opacity:1;stroke-width:1;stroke-linecap:butt;stroke-linejoin:miter;stroke:rgb(0%,0%,0%);stroke-opacity:1;stroke-miterlimit:10;" d="M 0.501344 0.501125 L 0.501344 9.423 L 9.423219 9.423 L 9.423219 0.501125 Z M 0.501344 0.501125 " transform="matrix(1,0,0,-1,483.026,105.298)"/>
<g style="fill:rgb(0%,0%,0%);fill-opacity:1;">
  <use xlink:href="#glyph0-21" x="301.453" y="117.643"/>
  <use xlink:href="#glyph0-8" x="309.887916" y="117.643"/>
  <use xlink:href="#glyph0-12" x="315.914103" y="117.643"/>
  <use xlink:href="#glyph0-13" x="320.735925" y="117.643"/>
  <use xlink:href="#glyph0-14" x="325.015565" y="117.643"/>
  <use xlink:href="#glyph0-15" x="329.235205" y="117.643"/>
  <use xlink:href="#glyph0-7" x="332.25048" y="117.643"/>
  <use xlink:href="#glyph0-16" x="337.674485" y="117.643"/>
</g>
<g style="fill:rgb(0%,0%,0%);fill-opacity:1;">
  <use xlink:href="#glyph0-14" x="347.311584" y="117.643"/>
</g>
<g style="fill:rgb(0%,0%,0%);fill-opacity:1;">
  <use xlink:href="#glyph0-22" x="351.236678" y="117.643"/>
</g>
<g style="fill:rgb(0%,0%,0%);fill-opacity:1;">
  <use xlink:href="#glyph0-7" x="358.763957" y="117.643"/>
</g>
<path style="fill-rule:nonzero;fill:rgb(100%,100%,100%);fill-opacity:1;stroke-width:1;stroke-linecap:butt;stroke-linejoin:miter;stroke:rgb(0%,0%,0%);stroke-opacity:1;stroke-miterlimit:10;" d="M 0.498562 0.499344 L 0.498562 9.421219 L 9.420437 9.421219 L 9.420437 0.499344 Z M 0.498562 0.499344 " transform="matrix(1,0,0,-1,404.478,118.847)"/>
<path style="fill-rule:nonzero;fill:rgb(100%,100%,100%);fill-opacity:1;stroke-width:1;stroke-linecap:butt;stroke-linejoin:miter;stroke:rgb(0%,0%,0%);stroke-opacity:1;stroke-miterlimit:10;" d="M 0.501344 0.499344 L 0.501344 9.421219 L 9.423219 9.421219 L 9.423219 0.499344 Z M 0.501344 0.499344 " transform="matrix(1,0,0,-1,483.026,118.847)"/>
<g style="fill:rgb(0%,0%,0%);fill-opacity:1;">
  <use xlink:href="#glyph0-1" x="0.016" y="138.236"/>
  <use xlink:href="#glyph0-2" x="5.440005" y="138.236"/>
  <use xlink:href="#glyph0-25" x="8.45528" y="138.236"/>
</g>
<g style="fill:rgb(0%,0%,0%);fill-opacity:1;">
  <use xlink:href="#glyph0-4" x="19.301107" y="138.236"/>
  <use xlink:href="#glyph0-16" x="27.431659" y="138.236"/>
  <use xlink:href="#glyph0-7" x="33.457846" y="138.236"/>
  <use xlink:href="#glyph0-14" x="38.881851" y="138.236"/>
  <use xlink:href="#glyph0-18" x="43.10149" y="138.236"/>
  <use xlink:href="#glyph0-12" x="49.127677" y="138.236"/>
  <use xlink:href="#glyph0-6" x="53.949499" y="138.236"/>
</g>
<g style="fill:rgb(0%,0%,0%);fill-opacity:1;">
  <use xlink:href="#glyph0-5" x="61.780051" y="138.236"/>
  <use xlink:href="#glyph0-6" x="67.204056" y="138.236"/>
  <use xlink:href="#glyph0-7" x="71.423696" y="138.236"/>
  <use xlink:href="#glyph0-8" x="76.8477" y="138.236"/>
  <use xlink:href="#glyph0-9" x="82.873887" y="138.236"/>
</g>
<g style="fill:rgb(0%,0%,0%);fill-opacity:1;">
  <use xlink:href="#glyph0-7" x="92.521895" y="138.236"/>
  <use xlink:href="#glyph0-10" x="97.9459" y="138.236"/>
</g>
<g style="fill:rgb(0%,0%,0%);fill-opacity:1;">
  <use xlink:href="#glyph0-11" x="104.873178" y="138.236"/>
  <use xlink:href="#glyph0-8" x="110.598274" y="138.236"/>
  <use xlink:href="#glyph0-12" x="116.624461" y="138.236"/>
  <use xlink:href="#glyph0-13" x="121.446283" y="138.236"/>
  <use xlink:href="#glyph0-14" x="125.725923" y="138.236"/>
  <use xlink:href="#glyph0-15" x="129.945563" y="138.236"/>
  <use xlink:href="#glyph0-7" x="132.960838" y="138.236"/>
  <use xlink:href="#glyph0-16" x="138.384843" y="138.236"/>
  <use xlink:href="#glyph0-13" x="144.411029" y="138.236"/>
</g>
<g style="fill:rgb(0%,0%,0%);fill-opacity:1;">
  <use xlink:href="#glyph0-22" x="152.301581" y="138.236"/>
  <use xlink:href="#glyph0-18" x="160.134315" y="138.236"/>
  <use xlink:href="#glyph0-15" x="166.160502" y="138.236"/>
  <use xlink:href="#glyph0-19" x="169.175777" y="138.236"/>
</g>
<g style="fill:rgb(0%,0%,0%);fill-opacity:1;">
  <use xlink:href="#glyph0-18" x="173.703054" y="138.236"/>
</g>
<g style="fill:rgb(0%,0%,0%);fill-opacity:1;">
  <use xlink:href="#glyph0-15" x="183.340153" y="138.236"/>
  <use xlink:href="#glyph0-13" x="186.355428" y="138.236"/>
</g>
<g style="fill:rgb(0%,0%,0%);fill-opacity:1;">
  <use xlink:href="#glyph0-26" x="194.256889" y="138.236"/>
  <use xlink:href="#glyph0-8" x="199.680894" y="138.236"/>
  <use xlink:href="#glyph0-14" x="205.707081" y="138.236"/>
  <use xlink:href="#glyph0-7" x="209.92672" y="138.236"/>
  <use xlink:href="#glyph0-24" x="215.350725" y="138.236"/>
  <use xlink:href="#glyph0-26" x="224.387823" y="138.236"/>
  <use xlink:href="#glyph0-14" x="229.811828" y="138.236"/>
</g>
<g style="fill:rgb(0%,0%,0%);fill-opacity:1;">
  <use xlink:href="#glyph0-15" x="234.020559" y="138.236"/>
  <use xlink:href="#glyph0-19" x="237.035834" y="138.236"/>
  <use xlink:href="#glyph0-26" x="241.857656" y="138.236"/>
  <use xlink:href="#glyph0-27" x="247.281661" y="138.236"/>
  <use xlink:href="#glyph0-27" x="250.296936" y="138.236"/>
  <use xlink:href="#glyph0-28" x="253.312211" y="138.236"/>
</g>
<g style="fill:rgb(0%,0%,0%);fill-opacity:1;">
  <use xlink:href="#glyph0-26" x="262.659128" y="138.236"/>
  <use xlink:href="#glyph0-27" x="268.083132" y="138.236"/>
  <use xlink:href="#glyph0-15" x="271.098408" y="138.236"/>
  <use xlink:href="#glyph0-5" x="274.113683" y="138.236"/>
  <use xlink:href="#glyph0-16" x="279.537687" y="138.236"/>
  <use xlink:href="#glyph0-12" x="285.563874" y="138.236"/>
  <use xlink:href="#glyph0-29" x="290.385697" y="138.236"/>
</g>
<g style="fill:rgb(0%,0%,0%);fill-opacity:1;">
  <use xlink:href="#glyph0-14" x="300.022795" y="138.236"/>
  <use xlink:href="#glyph0-7" x="304.242435" y="138.236"/>
</g>
<g style="fill:rgb(0%,0%,0%);fill-opacity:1;">
  <use xlink:href="#glyph0-14" x="313.288261" y="138.236"/>
  <use xlink:href="#glyph0-18" x="317.507901" y="138.236"/>
</g>
<g style="fill:rgb(0%,0%,0%);fill-opacity:1;">
  <use xlink:href="#glyph0-12" x="323.523179" y="138.236"/>
</g>
<g style="fill:rgb(0%,0%,0%);fill-opacity:1;">
  <use xlink:href="#glyph0-9" x="331.966822" y="138.236"/>
  <use xlink:href="#glyph0-6" x="337.993009" y="138.236"/>
  <use xlink:href="#glyph0-12" x="342.212649" y="138.236"/>
  <use xlink:href="#glyph0-30" x="347.034471" y="138.236"/>
  <use xlink:href="#glyph0-15" x="352.759567" y="138.236"/>
  <use xlink:href="#glyph0-7" x="355.774842" y="138.236"/>
  <use xlink:href="#glyph0-8" x="361.198846" y="138.236"/>
  <use xlink:href="#glyph0-13" x="367.225033" y="138.236"/>
</g>
<g style="fill:rgb(0%,0%,0%);fill-opacity:1;">
  <use xlink:href="#glyph0-3" x="406.727" y="151.785"/>
</g>
<g style="fill:rgb(0%,0%,0%);fill-opacity:1;">
  <use xlink:href="#glyph0-20" x="485.274702" y="151.785"/>
</g>
<g style="fill:rgb(0%,0%,0%);fill-opacity:1;">
  <use xlink:href="#glyph0-21" x="302.055" y="165.334"/>
  <use xlink:href="#glyph0-8" x="310.489916" y="165.334"/>
  <use xlink:href="#glyph0-12" x="316.516103" y="165.334"/>
  <use xlink:href="#glyph0-13" x="321.337925" y="165.334"/>
  <use xlink:href="#glyph0-14" x="325.617565" y="165.334"/>
  <use xlink:href="#glyph0-15" x="329.837205" y="165.334"/>
  <use xlink:href="#glyph0-7" x="332.85248" y="165.334"/>
  <use xlink:href="#glyph0-16" x="338.276485" y="165.334"/>
</g>
<g style="fill:rgb(0%,0%,0%);fill-opacity:1;">
  <use xlink:href="#glyph0-7" x="347.913584" y="165.334"/>
  <use xlink:href="#glyph0-16" x="353.337588" y="165.334"/>
  <use xlink:href="#glyph0-12" x="359.363775" y="165.334"/>
</g>
<path style="fill-rule:nonzero;fill:rgb(100%,100%,100%);fill-opacity:1;stroke-width:1;stroke-linecap:butt;stroke-linejoin:miter;stroke:rgb(0%,0%,0%);stroke-opacity:1;stroke-miterlimit:10;" d="M 0.498562 0.498938 L 0.498562 9.420813 L 9.420437 9.420813 L 9.420437 0.498938 Z M 0.498562 0.498938 " transform="matrix(1,0,0,-1,404.478,166.538)"/>
<path style="fill-rule:nonzero;fill:rgb(100%,100%,100%);fill-opacity:1;stroke-width:1;stroke-linecap:butt;stroke-linejoin:miter;stroke:rgb(0%,0%,0%);stroke-opacity:1;stroke-miterlimit:10;" d="M 0.501344 0.498938 L 0.501344 9.420813 L 9.423219 9.420813 L 9.423219 0.498938 Z M 0.501344 0.498938 " transform="matrix(1,0,0,-1,483.026,166.538)"/>
<g style="fill:rgb(0%,0%,0%);fill-opacity:1;">
  <use xlink:href="#glyph0-21" x="301.453" y="178.884"/>
  <use xlink:href="#glyph0-8" x="309.887916" y="178.884"/>
  <use xlink:href="#glyph0-12" x="315.914103" y="178.884"/>
  <use xlink:href="#glyph0-13" x="320.735925" y="178.884"/>
  <use xlink:href="#glyph0-14" x="325.015565" y="178.884"/>
  <use xlink:href="#glyph0-15" x="329.235205" y="178.884"/>
  <use xlink:href="#glyph0-7" x="332.25048" y="178.884"/>
  <use xlink:href="#glyph0-16" x="337.674485" y="178.884"/>
</g>
<g style="fill:rgb(0%,0%,0%);fill-opacity:1;">
  <use xlink:href="#glyph0-14" x="347.311584" y="178.884"/>
</g>
<g style="fill:rgb(0%,0%,0%);fill-opacity:1;">
  <use xlink:href="#glyph0-22" x="351.236678" y="178.884"/>
</g>
<g style="fill:rgb(0%,0%,0%);fill-opacity:1;">
  <use xlink:href="#glyph0-7" x="358.763957" y="178.884"/>
</g>
<path style="fill-rule:nonzero;fill:rgb(100%,100%,100%);fill-opacity:1;stroke-width:1;stroke-linecap:butt;stroke-linejoin:miter;stroke:rgb(0%,0%,0%);stroke-opacity:1;stroke-miterlimit:10;" d="M 0.498562 0.498156 L 0.498562 9.420031 L 9.420437 9.420031 L 9.420437 0.498156 Z M 0.498562 0.498156 " transform="matrix(1,0,0,-1,404.478,180.088)"/>
<path style="fill-rule:nonzero;fill:rgb(100%,100%,100%);fill-opacity:1;stroke-width:1;stroke-linecap:butt;stroke-linejoin:miter;stroke:rgb(0%,0%,0%);stroke-opacity:1;stroke-miterlimit:10;" d="M 0.501344 0.498156 L 0.501344 9.420031 L 9.423219 9.420031 L 9.423219 0.498156 Z M 0.501344 0.498156 " transform="matrix(1,0,0,-1,483.026,180.088)"/>
</g>
</svg>
