<svg width="127" height="41" viewBox="0 0 127 41" fill="none" xmlns="http://www.w3.org/2000/svg">
<circle cx="20" cy="20.5" r="20" fill="#011E5D"/>
<path d="M29.3724 11.9622L27.0562 9.63156C26.6543 9.22718 26.1093 9 25.541 9H17.8571C16.6737 9 15.7143 9.96537 15.7143 11.1562V13.3125H12.1429C10.9594 13.3125 10 14.2779 10 15.4688V29.8438C10 31.0346 10.9594 32 12.1429 32H22.1429C23.3263 32 24.2857 31.0346 24.2857 29.8438V27.6875H27.8571C29.0406 27.6875 30 26.7221 30 25.5312V13.4869C30 12.915 29.7742 12.3666 29.3724 11.9622ZM21.875 29.8438H12.4107C12.3397 29.8438 12.2715 29.8154 12.2213 29.7648C12.1711 29.7143 12.1429 29.6457 12.1429 29.5742V15.7383C12.1429 15.6668 12.1711 15.5982 12.2213 15.5477C12.2715 15.4971 12.3397 15.4688 12.4107 15.4688H15.7143V25.5312C15.7143 26.7221 16.6737 27.6875 17.8571 27.6875H22.1429V29.5742C22.1429 29.6457 22.1146 29.7143 22.0644 29.7648C22.0142 29.8154 21.946 29.8438 21.875 29.8438ZM27.5893 25.5312H18.125C18.054 25.5312 17.9858 25.5029 17.9356 25.4523C17.8854 25.4018 17.8571 25.3332 17.8571 25.2617V11.4258C17.8571 11.3543 17.8854 11.2857 17.9356 11.2352C17.9858 11.1846 18.054 11.1562 18.125 11.1562H22.8571V15.1094C22.8571 15.7048 23.3368 16.1875 23.9286 16.1875H27.8571V25.2617C27.8571 25.3332 27.8289 25.4018 27.7787 25.4523C27.7285 25.5029 27.6603 25.5312 27.5893 25.5312ZM27.8571 14.0312H25V11.1562H25.43C25.501 11.1562 25.5692 11.1846 25.6194 11.2352L27.7787 13.408C27.8036 13.433 27.8233 13.4627 27.8368 13.4954C27.8502 13.5281 27.8571 13.5632 27.8571 13.5986V14.0312Z" fill="white"/>
</svg>
